<?xml version="1.0" encoding="UTF-8"?>
<svg id="Layer_1" xmlns="http://www.w3.org/2000/svg" version="1.1" viewBox="0 0 294 60">
  <!-- Generator: Adobe Illustrator 29.2.1, SVG Export Plug-In . SVG Version: 2.1.0 Build 116)  -->
  <defs>
    <style>
      .st0 {
        fill: #3c7cbf;
      }

      .st1 {
        fill: #0062ff;
        stroke: #0062ff;
      }

      .st1, .st2 {
        stroke-miterlimit: 10;
      }

      .st2 {
        fill: #10172e;
        stroke: #10172e;
      }
    </style>
  </defs>
  <g>
    <polygon class="st2" points="3 3.4 3 10.1 13.1 20.5 13.1 13.7 43.8 13.7 43.8 20.7 53.7 20.7 53.7 3.4 3 3.4"/>
    <polygon class="st2" points="43.8 43 36.9 43 47.3 53.7 53.7 53.7 53.7 28.7 43.8 28.7 43.8 43"/>
    <polygon class="st1" points="12.5 43 12.5 29.2 3 18.8 3 53.7 34.9 53.7 25.1 43 12.5 43"/>
  </g>
  <g>
    <polygon class="st1" points="84.1 8.7 76.2 8.8 62.4 27.5 76.1 46.2 84.2 46.2 70.6 27.4 84.1 8.7"/>
    <polygon class="st1" points="90.9 15.8 96.1 23.2 101.6 18.8 93.9 8.7 85 8.7 79.9 15.7 90.9 15.8"/>
    <polygon class="st1" points="96.1 31.5 90.7 39.1 79.9 39.1 80 39.2 85.1 46.2 93.7 46.2 101.7 35.6 96.1 31.5"/>
  </g>
  <path class="st1" d="M132.3,31.6c0,2-.4,4-1.1,5.7-.7,1.8-1.7,3.3-3,4.6s-2.8,2.3-4.5,3-3.5,1.1-5.5,1.1-3.8-.4-5.5-1.1c-1.7-.7-3.2-1.8-4.5-3-1.3-1.3-2.3-2.8-3-4.6s-1.1-3.7-1.1-5.7.4-4,1.1-5.8,1.7-3.3,3-4.6c1.3-1.3,2.8-2.3,4.5-3s3.5-1.1,5.5-1.1,3.8.3,5.5,1,3.2,1.7,4.5,2.9c1.3,1.3,2.3,2.8,3,4.6.7,1.8,1.1,3.8,1.1,6ZM125.2,31.6c0-1.1-.2-2.1-.6-3.1-.4-.9-.9-1.7-1.5-2.4-.6-.7-1.4-1.2-2.2-1.5-.8-.3-1.8-.5-2.7-.5s-1.9.2-2.7.5c-.8.3-1.6.9-2.2,1.5-.6.7-1.1,1.4-1.5,2.4-.4.9-.5,1.9-.5,3.1s.2,2,.5,2.9c.4.9.9,1.7,1.5,2.4s1.4,1.2,2.2,1.6,1.8.6,2.7.6,1.9-.2,2.7-.5c.8-.4,1.6-.9,2.2-1.5s1.1-1.4,1.5-2.4c.4-.9.6-1.9.6-3h0Z"/>
  <path class="st1" d="M163.6,45.9h-1.7l-2.7-3.8c-.7.6-1.4,1.2-2.1,1.7-.7.5-1.5,1-2.4,1.4-.8.4-1.7.7-2.5.9-.9.2-1.7.3-2.6.3-1.9,0-3.8-.4-5.5-1.1-1.7-.7-3.2-1.7-4.5-3s-2.3-2.8-3-4.6-1.1-3.7-1.1-5.8.4-4,1.1-5.8c.7-1.8,1.7-3.3,3-4.6,1.3-1.3,2.8-2.3,4.5-3s3.5-1.1,5.5-1.1,1.3,0,1.9.2c.7.1,1.3.3,1.9.5.6.2,1.2.5,1.8.9.5.4,1,.8,1.4,1.4V7.6h7.1v38.3h0ZM156.6,32c0-1-.2-1.9-.6-2.8-.4-.9-.9-1.7-1.5-2.4-.6-.7-1.4-1.2-2.2-1.7-.8-.4-1.8-.6-2.7-.6s-1.9.2-2.7.5-1.6.8-2.2,1.5c-.6.6-1.1,1.4-1.5,2.3s-.5,2-.5,3.1.2,2,.5,2.9c.4.9.9,1.7,1.5,2.4s1.4,1.2,2.2,1.6c.8.4,1.8.6,2.7.6s1.9-.2,2.7-.6c.8-.4,1.6-1,2.2-1.7.6-.7,1.1-1.5,1.5-2.4s.6-1.8.6-2.8h0Z"/>
  <path class="st1" d="M179.1,39.5c.3,0,.5,0,.8.2h.8c.7,0,1.3,0,2-.3.6-.2,1.2-.5,1.8-.8s1.1-.8,1.5-1.3.8-1.1,1.1-1.7l5.1,5.1c-.7.9-1.4,1.7-2.3,2.5-.8.7-1.8,1.4-2.8,1.9s-2,.9-3.1,1.2-2.2.4-3.4.4c-1.9,0-3.8-.4-5.5-1.1-1.7-.7-3.2-1.7-4.5-3s-2.3-2.8-3-4.6-1.1-3.7-1.1-5.8.4-4.1,1.1-5.9c.7-1.8,1.7-3.3,3-4.6,1.3-1.3,2.8-2.2,4.5-2.9,1.7-.7,3.5-1,5.5-1s2.3.1,3.4.4c1.1.3,2.1.7,3.1,1.2s1.9,1.1,2.8,1.9c.9.7,1.6,1.6,2.3,2.5l-13.2,15.8h0ZM182.7,25.1c-.3-.1-.6-.2-1-.2h-1c-1,0-1.9.2-2.7.5s-1.6.8-2.2,1.5c-.6.6-1.1,1.4-1.5,2.3s-.5,1.9-.5,3.1,0,.5,0,.9,0,.7.1,1c0,.3.1.7.2,1,0,.3.2.6.3.8l8.2-10.8h0Z"/>
  <path class="st1" d="M202.8,46.2h-7v-27.4h1.7l2.3,3.3c1.1-1,2.4-1.8,3.9-2.4,1.4-.6,2.9-.8,4.5-.8h6.2v7h-6.2c-.7,0-1.4.1-2.1.4-.7.3-1.2.6-1.7,1.1s-.9,1-1.1,1.7c-.3.6-.4,1.3-.4,2.1v15.1h0Z"/>
  <path class="st2" d="M226.1,45.8h-7.1V7.5h7.1v38.3Z"/>
  <path class="st2" d="M239.4,11.3c0,.6-.1,1.3-.4,1.8-.2.6-.6,1.1-1,1.5s-.9.8-1.5,1-1.2.4-1.8.4-1.3-.1-1.8-.4c-.6-.2-1.1-.6-1.5-1s-.8-.9-1-1.5-.4-1.2-.4-1.8.1-1.2.4-1.8c.2-.6.6-1.1,1-1.5s.9-.8,1.5-1,1.2-.4,1.8-.4,1.3.1,1.8.4c.6.2,1.1.6,1.5,1s.8.9,1,1.5.4,1.2.4,1.8ZM238.2,46.2h-7.1v-27.4h7.1v27.4Z"/>
  <path class="st2" d="M258.4,46.2c-1.7,0-3.3-.3-4.8-1-1.5-.6-2.8-1.5-3.9-2.6-1.1-1.1-2-2.4-2.6-3.9s-1-3.1-1-4.8v-8.1h-3.4v-7h3.4V7.8h7v11h10.6v7h-10.6v8.1c0,.7.1,1.4.4,2.1.3.6.7,1.2,1.1,1.7.5.5,1,.9,1.7,1.1.7.3,1.3.4,2.1.4h5.3v7h-5.3Z"/>
  <path class="st2" d="M274.3,56.6v-7h3.9c.7,0,1.3,0,2-.3.6-.2,1.2-.5,1.8-.9.5-.4,1-.9,1.4-1.4s.7-1.1,1-1.8c-.8.3-1.6.6-2.4,1-.8.3-1.6.5-2.4.5-1.7,0-3.3-.3-4.8-.9-1.5-.6-2.8-1.4-3.9-2.5s-2-2.4-2.6-4-1-3.3-1-5.3v-15.2h7v15.2c0,1,.1,1.8.4,2.5s.7,1.3,1.1,1.8c.5.5,1,.8,1.7,1.1.6.2,1.3.4,2.1.4s1.4-.2,2-.5,1.2-.8,1.7-1.3.9-1.2,1.1-1.9c.3-.7.4-1.4.4-2.1v-15.2h7.1v24c0,1.9-.4,3.7-1.1,5.4s-1.7,3.2-3,4.4c-1.3,1.3-2.8,2.3-4.5,3s-3.5,1.1-5.5,1.1h-3.6,0Z"/>
  <path class="st0" d="M52.7,15.3"/>
</svg>